<?xml version="1.0" standalone="no"?>
<!DOCTYPE svg PUBLIC "-//W3C//DTD SVG 1.1//EN" "http://www.w3.org/Graphics/SVG/1.1/DTD/svg11.dtd">
<svg width="296" height="296" version="1.1" xmlns="http://www.w3.org/2000/svg">
<rect x="0" y="0" width="296" height="296" style="fill:rgb(255,255,255);" />
<rect x="32" y="32" width="8" height="8" style="fill:rgb(0,0,0);" />
<rect x="40" y="32" width="8" height="8" style="fill:rgb(0,0,0);" />
<rect x="48" y="32" width="8" height="8" style="fill:rgb(0,0,0);" />
<rect x="56" y="32" width="8" height="8" style="fill:rgb(0,0,0);" />
<rect x="64" y="32" width="8" height="8" style="fill:rgb(0,0,0);" />
<rect x="72" y="32" width="8" height="8" style="fill:rgb(0,0,0);" />
<rect x="80" y="32" width="8" height="8" style="fill:rgb(0,0,0);" />
<rect x="96" y="32" width="8" height="8" style="fill:rgb(0,0,0);" />
<rect x="120" y="32" width="8" height="8" style="fill:rgb(0,0,0);" />
<rect x="128" y="32" width="8" height="8" style="fill:rgb(0,0,0);" />
<rect x="152" y="32" width="8" height="8" style="fill:rgb(0,0,0);" />
<rect x="160" y="32" width="8" height="8" style="fill:rgb(0,0,0);" />
<rect x="176" y="32" width="8" height="8" style="fill:rgb(0,0,0);" />
<rect x="192" y="32" width="8" height="8" style="fill:rgb(0,0,0);" />
<rect x="208" y="32" width="8" height="8" style="fill:rgb(0,0,0);" />
<rect x="216" y="32" width="8" height="8" style="fill:rgb(0,0,0);" />
<rect x="224" y="32" width="8" height="8" style="fill:rgb(0,0,0);" />
<rect x="232" y="32" width="8" height="8" style="fill:rgb(0,0,0);" />
<rect x="240" y="32" width="8" height="8" style="fill:rgb(0,0,0);" />
<rect x="248" y="32" width="8" height="8" style="fill:rgb(0,0,0);" />
<rect x="256" y="32" width="8" height="8" style="fill:rgb(0,0,0);" />
<rect x="32" y="40" width="8" height="8" style="fill:rgb(0,0,0);" />
<rect x="80" y="40" width="8" height="8" style="fill:rgb(0,0,0);" />
<rect x="96" y="40" width="8" height="8" style="fill:rgb(0,0,0);" />
<rect x="104" y="40" width="8" height="8" style="fill:rgb(0,0,0);" />
<rect x="120" y="40" width="8" height="8" style="fill:rgb(0,0,0);" />
<rect x="128" y="40" width="8" height="8" style="fill:rgb(0,0,0);" />
<rect x="144" y="40" width="8" height="8" style="fill:rgb(0,0,0);" />
<rect x="152" y="40" width="8" height="8" style="fill:rgb(0,0,0);" />
<rect x="168" y="40" width="8" height="8" style="fill:rgb(0,0,0);" />
<rect x="184" y="40" width="8" height="8" style="fill:rgb(0,0,0);" />
<rect x="192" y="40" width="8" height="8" style="fill:rgb(0,0,0);" />
<rect x="208" y="40" width="8" height="8" style="fill:rgb(0,0,0);" />
<rect x="256" y="40" width="8" height="8" style="fill:rgb(0,0,0);" />
<rect x="32" y="48" width="8" height="8" style="fill:rgb(0,0,0);" />
<rect x="48" y="48" width="8" height="8" style="fill:rgb(0,0,0);" />
<rect x="56" y="48" width="8" height="8" style="fill:rgb(0,0,0);" />
<rect x="64" y="48" width="8" height="8" style="fill:rgb(0,0,0);" />
<rect x="80" y="48" width="8" height="8" style="fill:rgb(0,0,0);" />
<rect x="112" y="48" width="8" height="8" style="fill:rgb(0,0,0);" />
<rect x="136" y="48" width="8" height="8" style="fill:rgb(0,0,0);" />
<rect x="144" y="48" width="8" height="8" style="fill:rgb(0,0,0);" />
<rect x="152" y="48" width="8" height="8" style="fill:rgb(0,0,0);" />
<rect x="176" y="48" width="8" height="8" style="fill:rgb(0,0,0);" />
<rect x="192" y="48" width="8" height="8" style="fill:rgb(0,0,0);" />
<rect x="208" y="48" width="8" height="8" style="fill:rgb(0,0,0);" />
<rect x="224" y="48" width="8" height="8" style="fill:rgb(0,0,0);" />
<rect x="232" y="48" width="8" height="8" style="fill:rgb(0,0,0);" />
<rect x="240" y="48" width="8" height="8" style="fill:rgb(0,0,0);" />
<rect x="256" y="48" width="8" height="8" style="fill:rgb(0,0,0);" />
<rect x="32" y="56" width="8" height="8" style="fill:rgb(0,0,0);" />
<rect x="48" y="56" width="8" height="8" style="fill:rgb(0,0,0);" />
<rect x="56" y="56" width="8" height="8" style="fill:rgb(0,0,0);" />
<rect x="64" y="56" width="8" height="8" style="fill:rgb(0,0,0);" />
<rect x="80" y="56" width="8" height="8" style="fill:rgb(0,0,0);" />
<rect x="96" y="56" width="8" height="8" style="fill:rgb(0,0,0);" />
<rect x="112" y="56" width="8" height="8" style="fill:rgb(0,0,0);" />
<rect x="120" y="56" width="8" height="8" style="fill:rgb(0,0,0);" />
<rect x="160" y="56" width="8" height="8" style="fill:rgb(0,0,0);" />
<rect x="176" y="56" width="8" height="8" style="fill:rgb(0,0,0);" />
<rect x="184" y="56" width="8" height="8" style="fill:rgb(0,0,0);" />
<rect x="208" y="56" width="8" height="8" style="fill:rgb(0,0,0);" />
<rect x="224" y="56" width="8" height="8" style="fill:rgb(0,0,0);" />
<rect x="232" y="56" width="8" height="8" style="fill:rgb(0,0,0);" />
<rect x="240" y="56" width="8" height="8" style="fill:rgb(0,0,0);" />
<rect x="256" y="56" width="8" height="8" style="fill:rgb(0,0,0);" />
<rect x="32" y="64" width="8" height="8" style="fill:rgb(0,0,0);" />
<rect x="48" y="64" width="8" height="8" style="fill:rgb(0,0,0);" />
<rect x="56" y="64" width="8" height="8" style="fill:rgb(0,0,0);" />
<rect x="64" y="64" width="8" height="8" style="fill:rgb(0,0,0);" />
<rect x="80" y="64" width="8" height="8" style="fill:rgb(0,0,0);" />
<rect x="136" y="64" width="8" height="8" style="fill:rgb(0,0,0);" />
<rect x="176" y="64" width="8" height="8" style="fill:rgb(0,0,0);" />
<rect x="192" y="64" width="8" height="8" style="fill:rgb(0,0,0);" />
<rect x="208" y="64" width="8" height="8" style="fill:rgb(0,0,0);" />
<rect x="224" y="64" width="8" height="8" style="fill:rgb(0,0,0);" />
<rect x="232" y="64" width="8" height="8" style="fill:rgb(0,0,0);" />
<rect x="240" y="64" width="8" height="8" style="fill:rgb(0,0,0);" />
<rect x="256" y="64" width="8" height="8" style="fill:rgb(0,0,0);" />
<rect x="32" y="72" width="8" height="8" style="fill:rgb(0,0,0);" />
<rect x="80" y="72" width="8" height="8" style="fill:rgb(0,0,0);" />
<rect x="104" y="72" width="8" height="8" style="fill:rgb(0,0,0);" />
<rect x="120" y="72" width="8" height="8" style="fill:rgb(0,0,0);" />
<rect x="128" y="72" width="8" height="8" style="fill:rgb(0,0,0);" />
<rect x="144" y="72" width="8" height="8" style="fill:rgb(0,0,0);" />
<rect x="168" y="72" width="8" height="8" style="fill:rgb(0,0,0);" />
<rect x="176" y="72" width="8" height="8" style="fill:rgb(0,0,0);" />
<rect x="184" y="72" width="8" height="8" style="fill:rgb(0,0,0);" />
<rect x="192" y="72" width="8" height="8" style="fill:rgb(0,0,0);" />
<rect x="208" y="72" width="8" height="8" style="fill:rgb(0,0,0);" />
<rect x="256" y="72" width="8" height="8" style="fill:rgb(0,0,0);" />
<rect x="32" y="80" width="8" height="8" style="fill:rgb(0,0,0);" />
<rect x="40" y="80" width="8" height="8" style="fill:rgb(0,0,0);" />
<rect x="48" y="80" width="8" height="8" style="fill:rgb(0,0,0);" />
<rect x="56" y="80" width="8" height="8" style="fill:rgb(0,0,0);" />
<rect x="64" y="80" width="8" height="8" style="fill:rgb(0,0,0);" />
<rect x="72" y="80" width="8" height="8" style="fill:rgb(0,0,0);" />
<rect x="80" y="80" width="8" height="8" style="fill:rgb(0,0,0);" />
<rect x="96" y="80" width="8" height="8" style="fill:rgb(0,0,0);" />
<rect x="112" y="80" width="8" height="8" style="fill:rgb(0,0,0);" />
<rect x="128" y="80" width="8" height="8" style="fill:rgb(0,0,0);" />
<rect x="144" y="80" width="8" height="8" style="fill:rgb(0,0,0);" />
<rect x="160" y="80" width="8" height="8" style="fill:rgb(0,0,0);" />
<rect x="176" y="80" width="8" height="8" style="fill:rgb(0,0,0);" />
<rect x="192" y="80" width="8" height="8" style="fill:rgb(0,0,0);" />
<rect x="208" y="80" width="8" height="8" style="fill:rgb(0,0,0);" />
<rect x="216" y="80" width="8" height="8" style="fill:rgb(0,0,0);" />
<rect x="224" y="80" width="8" height="8" style="fill:rgb(0,0,0);" />
<rect x="232" y="80" width="8" height="8" style="fill:rgb(0,0,0);" />
<rect x="240" y="80" width="8" height="8" style="fill:rgb(0,0,0);" />
<rect x="248" y="80" width="8" height="8" style="fill:rgb(0,0,0);" />
<rect x="256" y="80" width="8" height="8" style="fill:rgb(0,0,0);" />
<rect x="96" y="88" width="8" height="8" style="fill:rgb(0,0,0);" />
<rect x="112" y="88" width="8" height="8" style="fill:rgb(0,0,0);" />
<rect x="136" y="88" width="8" height="8" style="fill:rgb(0,0,0);" />
<rect x="144" y="88" width="8" height="8" style="fill:rgb(0,0,0);" />
<rect x="184" y="88" width="8" height="8" style="fill:rgb(0,0,0);" />
<rect x="32" y="96" width="8" height="8" style="fill:rgb(0,0,0);" />
<rect x="48" y="96" width="8" height="8" style="fill:rgb(0,0,0);" />
<rect x="56" y="96" width="8" height="8" style="fill:rgb(0,0,0);" />
<rect x="72" y="96" width="8" height="8" style="fill:rgb(0,0,0);" />
<rect x="80" y="96" width="8" height="8" style="fill:rgb(0,0,0);" />
<rect x="88" y="96" width="8" height="8" style="fill:rgb(0,0,0);" />
<rect x="104" y="96" width="8" height="8" style="fill:rgb(0,0,0);" />
<rect x="112" y="96" width="8" height="8" style="fill:rgb(0,0,0);" />
<rect x="120" y="96" width="8" height="8" style="fill:rgb(0,0,0);" />
<rect x="136" y="96" width="8" height="8" style="fill:rgb(0,0,0);" />
<rect x="144" y="96" width="8" height="8" style="fill:rgb(0,0,0);" />
<rect x="160" y="96" width="8" height="8" style="fill:rgb(0,0,0);" />
<rect x="176" y="96" width="8" height="8" style="fill:rgb(0,0,0);" />
<rect x="208" y="96" width="8" height="8" style="fill:rgb(0,0,0);" />
<rect x="232" y="96" width="8" height="8" style="fill:rgb(0,0,0);" />
<rect x="248" y="96" width="8" height="8" style="fill:rgb(0,0,0);" />
<rect x="256" y="96" width="8" height="8" style="fill:rgb(0,0,0);" />
<rect x="32" y="104" width="8" height="8" style="fill:rgb(0,0,0);" />
<rect x="40" y="104" width="8" height="8" style="fill:rgb(0,0,0);" />
<rect x="48" y="104" width="8" height="8" style="fill:rgb(0,0,0);" />
<rect x="56" y="104" width="8" height="8" style="fill:rgb(0,0,0);" />
<rect x="64" y="104" width="8" height="8" style="fill:rgb(0,0,0);" />
<rect x="96" y="104" width="8" height="8" style="fill:rgb(0,0,0);" />
<rect x="128" y="104" width="8" height="8" style="fill:rgb(0,0,0);" />
<rect x="152" y="104" width="8" height="8" style="fill:rgb(0,0,0);" />
<rect x="160" y="104" width="8" height="8" style="fill:rgb(0,0,0);" />
<rect x="176" y="104" width="8" height="8" style="fill:rgb(0,0,0);" />
<rect x="184" y="104" width="8" height="8" style="fill:rgb(0,0,0);" />
<rect x="208" y="104" width="8" height="8" style="fill:rgb(0,0,0);" />
<rect x="216" y="104" width="8" height="8" style="fill:rgb(0,0,0);" />
<rect x="224" y="104" width="8" height="8" style="fill:rgb(0,0,0);" />
<rect x="256" y="104" width="8" height="8" style="fill:rgb(0,0,0);" />
<rect x="32" y="112" width="8" height="8" style="fill:rgb(0,0,0);" />
<rect x="40" y="112" width="8" height="8" style="fill:rgb(0,0,0);" />
<rect x="48" y="112" width="8" height="8" style="fill:rgb(0,0,0);" />
<rect x="80" y="112" width="8" height="8" style="fill:rgb(0,0,0);" />
<rect x="88" y="112" width="8" height="8" style="fill:rgb(0,0,0);" />
<rect x="104" y="112" width="8" height="8" style="fill:rgb(0,0,0);" />
<rect x="112" y="112" width="8" height="8" style="fill:rgb(0,0,0);" />
<rect x="128" y="112" width="8" height="8" style="fill:rgb(0,0,0);" />
<rect x="144" y="112" width="8" height="8" style="fill:rgb(0,0,0);" />
<rect x="152" y="112" width="8" height="8" style="fill:rgb(0,0,0);" />
<rect x="168" y="112" width="8" height="8" style="fill:rgb(0,0,0);" />
<rect x="240" y="112" width="8" height="8" style="fill:rgb(0,0,0);" />
<rect x="248" y="112" width="8" height="8" style="fill:rgb(0,0,0);" />
<rect x="48" y="120" width="8" height="8" style="fill:rgb(0,0,0);" />
<rect x="56" y="120" width="8" height="8" style="fill:rgb(0,0,0);" />
<rect x="72" y="120" width="8" height="8" style="fill:rgb(0,0,0);" />
<rect x="88" y="120" width="8" height="8" style="fill:rgb(0,0,0);" />
<rect x="112" y="120" width="8" height="8" style="fill:rgb(0,0,0);" />
<rect x="136" y="120" width="8" height="8" style="fill:rgb(0,0,0);" />
<rect x="144" y="120" width="8" height="8" style="fill:rgb(0,0,0);" />
<rect x="152" y="120" width="8" height="8" style="fill:rgb(0,0,0);" />
<rect x="176" y="120" width="8" height="8" style="fill:rgb(0,0,0);" />
<rect x="192" y="120" width="8" height="8" style="fill:rgb(0,0,0);" />
<rect x="224" y="120" width="8" height="8" style="fill:rgb(0,0,0);" />
<rect x="232" y="120" width="8" height="8" style="fill:rgb(0,0,0);" />
<rect x="256" y="120" width="8" height="8" style="fill:rgb(0,0,0);" />
<rect x="40" y="128" width="8" height="8" style="fill:rgb(0,0,0);" />
<rect x="64" y="128" width="8" height="8" style="fill:rgb(0,0,0);" />
<rect x="80" y="128" width="8" height="8" style="fill:rgb(0,0,0);" />
<rect x="88" y="128" width="8" height="8" style="fill:rgb(0,0,0);" />
<rect x="112" y="128" width="8" height="8" style="fill:rgb(0,0,0);" />
<rect x="120" y="128" width="8" height="8" style="fill:rgb(0,0,0);" />
<rect x="128" y="128" width="8" height="8" style="fill:rgb(0,0,0);" />
<rect x="160" y="128" width="8" height="8" style="fill:rgb(0,0,0);" />
<rect x="176" y="128" width="8" height="8" style="fill:rgb(0,0,0);" />
<rect x="232" y="128" width="8" height="8" style="fill:rgb(0,0,0);" />
<rect x="240" y="128" width="8" height="8" style="fill:rgb(0,0,0);" />
<rect x="32" y="136" width="8" height="8" style="fill:rgb(0,0,0);" />
<rect x="48" y="136" width="8" height="8" style="fill:rgb(0,0,0);" />
<rect x="56" y="136" width="8" height="8" style="fill:rgb(0,0,0);" />
<rect x="64" y="136" width="8" height="8" style="fill:rgb(0,0,0);" />
<rect x="72" y="136" width="8" height="8" style="fill:rgb(0,0,0);" />
<rect x="96" y="136" width="8" height="8" style="fill:rgb(0,0,0);" />
<rect x="112" y="136" width="8" height="8" style="fill:rgb(0,0,0);" />
<rect x="128" y="136" width="8" height="8" style="fill:rgb(0,0,0);" />
<rect x="136" y="136" width="8" height="8" style="fill:rgb(0,0,0);" />
<rect x="176" y="136" width="8" height="8" style="fill:rgb(0,0,0);" />
<rect x="184" y="136" width="8" height="8" style="fill:rgb(0,0,0);" />
<rect x="208" y="136" width="8" height="8" style="fill:rgb(0,0,0);" />
<rect x="248" y="136" width="8" height="8" style="fill:rgb(0,0,0);" />
<rect x="256" y="136" width="8" height="8" style="fill:rgb(0,0,0);" />
<rect x="32" y="144" width="8" height="8" style="fill:rgb(0,0,0);" />
<rect x="40" y="144" width="8" height="8" style="fill:rgb(0,0,0);" />
<rect x="56" y="144" width="8" height="8" style="fill:rgb(0,0,0);" />
<rect x="72" y="144" width="8" height="8" style="fill:rgb(0,0,0);" />
<rect x="80" y="144" width="8" height="8" style="fill:rgb(0,0,0);" />
<rect x="88" y="144" width="8" height="8" style="fill:rgb(0,0,0);" />
<rect x="96" y="144" width="8" height="8" style="fill:rgb(0,0,0);" />
<rect x="104" y="144" width="8" height="8" style="fill:rgb(0,0,0);" />
<rect x="112" y="144" width="8" height="8" style="fill:rgb(0,0,0);" />
<rect x="128" y="144" width="8" height="8" style="fill:rgb(0,0,0);" />
<rect x="144" y="144" width="8" height="8" style="fill:rgb(0,0,0);" />
<rect x="168" y="144" width="8" height="8" style="fill:rgb(0,0,0);" />
<rect x="176" y="144" width="8" height="8" style="fill:rgb(0,0,0);" />
<rect x="184" y="144" width="8" height="8" style="fill:rgb(0,0,0);" />
<rect x="200" y="144" width="8" height="8" style="fill:rgb(0,0,0);" />
<rect x="208" y="144" width="8" height="8" style="fill:rgb(0,0,0);" />
<rect x="216" y="144" width="8" height="8" style="fill:rgb(0,0,0);" />
<rect x="232" y="144" width="8" height="8" style="fill:rgb(0,0,0);" />
<rect x="240" y="144" width="8" height="8" style="fill:rgb(0,0,0);" />
<rect x="248" y="144" width="8" height="8" style="fill:rgb(0,0,0);" />
<rect x="256" y="144" width="8" height="8" style="fill:rgb(0,0,0);" />
<rect x="56" y="152" width="8" height="8" style="fill:rgb(0,0,0);" />
<rect x="64" y="152" width="8" height="8" style="fill:rgb(0,0,0);" />
<rect x="88" y="152" width="8" height="8" style="fill:rgb(0,0,0);" />
<rect x="104" y="152" width="8" height="8" style="fill:rgb(0,0,0);" />
<rect x="120" y="152" width="8" height="8" style="fill:rgb(0,0,0);" />
<rect x="136" y="152" width="8" height="8" style="fill:rgb(0,0,0);" />
<rect x="152" y="152" width="8" height="8" style="fill:rgb(0,0,0);" />
<rect x="168" y="152" width="8" height="8" style="fill:rgb(0,0,0);" />
<rect x="176" y="152" width="8" height="8" style="fill:rgb(0,0,0);" />
<rect x="184" y="152" width="8" height="8" style="fill:rgb(0,0,0);" />
<rect x="216" y="152" width="8" height="8" style="fill:rgb(0,0,0);" />
<rect x="224" y="152" width="8" height="8" style="fill:rgb(0,0,0);" />
<rect x="248" y="152" width="8" height="8" style="fill:rgb(0,0,0);" />
<rect x="40" y="160" width="8" height="8" style="fill:rgb(0,0,0);" />
<rect x="80" y="160" width="8" height="8" style="fill:rgb(0,0,0);" />
<rect x="104" y="160" width="8" height="8" style="fill:rgb(0,0,0);" />
<rect x="112" y="160" width="8" height="8" style="fill:rgb(0,0,0);" />
<rect x="128" y="160" width="8" height="8" style="fill:rgb(0,0,0);" />
<rect x="168" y="160" width="8" height="8" style="fill:rgb(0,0,0);" />
<rect x="176" y="160" width="8" height="8" style="fill:rgb(0,0,0);" />
<rect x="200" y="160" width="8" height="8" style="fill:rgb(0,0,0);" />
<rect x="224" y="160" width="8" height="8" style="fill:rgb(0,0,0);" />
<rect x="248" y="160" width="8" height="8" style="fill:rgb(0,0,0);" />
<rect x="32" y="168" width="8" height="8" style="fill:rgb(0,0,0);" />
<rect x="72" y="168" width="8" height="8" style="fill:rgb(0,0,0);" />
<rect x="88" y="168" width="8" height="8" style="fill:rgb(0,0,0);" />
<rect x="96" y="168" width="8" height="8" style="fill:rgb(0,0,0);" />
<rect x="104" y="168" width="8" height="8" style="fill:rgb(0,0,0);" />
<rect x="112" y="168" width="8" height="8" style="fill:rgb(0,0,0);" />
<rect x="120" y="168" width="8" height="8" style="fill:rgb(0,0,0);" />
<rect x="128" y="168" width="8" height="8" style="fill:rgb(0,0,0);" />
<rect x="136" y="168" width="8" height="8" style="fill:rgb(0,0,0);" />
<rect x="192" y="168" width="8" height="8" style="fill:rgb(0,0,0);" />
<rect x="216" y="168" width="8" height="8" style="fill:rgb(0,0,0);" />
<rect x="240" y="168" width="8" height="8" style="fill:rgb(0,0,0);" />
<rect x="248" y="168" width="8" height="8" style="fill:rgb(0,0,0);" />
<rect x="40" y="176" width="8" height="8" style="fill:rgb(0,0,0);" />
<rect x="56" y="176" width="8" height="8" style="fill:rgb(0,0,0);" />
<rect x="72" y="176" width="8" height="8" style="fill:rgb(0,0,0);" />
<rect x="80" y="176" width="8" height="8" style="fill:rgb(0,0,0);" />
<rect x="104" y="176" width="8" height="8" style="fill:rgb(0,0,0);" />
<rect x="112" y="176" width="8" height="8" style="fill:rgb(0,0,0);" />
<rect x="128" y="176" width="8" height="8" style="fill:rgb(0,0,0);" />
<rect x="176" y="176" width="8" height="8" style="fill:rgb(0,0,0);" />
<rect x="192" y="176" width="8" height="8" style="fill:rgb(0,0,0);" />
<rect x="200" y="176" width="8" height="8" style="fill:rgb(0,0,0);" />
<rect x="208" y="176" width="8" height="8" style="fill:rgb(0,0,0);" />
<rect x="216" y="176" width="8" height="8" style="fill:rgb(0,0,0);" />
<rect x="224" y="176" width="8" height="8" style="fill:rgb(0,0,0);" />
<rect x="232" y="176" width="8" height="8" style="fill:rgb(0,0,0);" />
<rect x="240" y="176" width="8" height="8" style="fill:rgb(0,0,0);" />
<rect x="32" y="184" width="8" height="8" style="fill:rgb(0,0,0);" />
<rect x="40" y="184" width="8" height="8" style="fill:rgb(0,0,0);" />
<rect x="64" y="184" width="8" height="8" style="fill:rgb(0,0,0);" />
<rect x="88" y="184" width="8" height="8" style="fill:rgb(0,0,0);" />
<rect x="104" y="184" width="8" height="8" style="fill:rgb(0,0,0);" />
<rect x="112" y="184" width="8" height="8" style="fill:rgb(0,0,0);" />
<rect x="128" y="184" width="8" height="8" style="fill:rgb(0,0,0);" />
<rect x="152" y="184" width="8" height="8" style="fill:rgb(0,0,0);" />
<rect x="160" y="184" width="8" height="8" style="fill:rgb(0,0,0);" />
<rect x="168" y="184" width="8" height="8" style="fill:rgb(0,0,0);" />
<rect x="176" y="184" width="8" height="8" style="fill:rgb(0,0,0);" />
<rect x="184" y="184" width="8" height="8" style="fill:rgb(0,0,0);" />
<rect x="208" y="184" width="8" height="8" style="fill:rgb(0,0,0);" />
<rect x="216" y="184" width="8" height="8" style="fill:rgb(0,0,0);" />
<rect x="240" y="184" width="8" height="8" style="fill:rgb(0,0,0);" />
<rect x="32" y="192" width="8" height="8" style="fill:rgb(0,0,0);" />
<rect x="48" y="192" width="8" height="8" style="fill:rgb(0,0,0);" />
<rect x="64" y="192" width="8" height="8" style="fill:rgb(0,0,0);" />
<rect x="80" y="192" width="8" height="8" style="fill:rgb(0,0,0);" />
<rect x="88" y="192" width="8" height="8" style="fill:rgb(0,0,0);" />
<rect x="96" y="192" width="8" height="8" style="fill:rgb(0,0,0);" />
<rect x="104" y="192" width="8" height="8" style="fill:rgb(0,0,0);" />
<rect x="112" y="192" width="8" height="8" style="fill:rgb(0,0,0);" />
<rect x="136" y="192" width="8" height="8" style="fill:rgb(0,0,0);" />
<rect x="152" y="192" width="8" height="8" style="fill:rgb(0,0,0);" />
<rect x="192" y="192" width="8" height="8" style="fill:rgb(0,0,0);" />
<rect x="200" y="192" width="8" height="8" style="fill:rgb(0,0,0);" />
<rect x="208" y="192" width="8" height="8" style="fill:rgb(0,0,0);" />
<rect x="216" y="192" width="8" height="8" style="fill:rgb(0,0,0);" />
<rect x="224" y="192" width="8" height="8" style="fill:rgb(0,0,0);" />
<rect x="232" y="192" width="8" height="8" style="fill:rgb(0,0,0);" />
<rect x="240" y="192" width="8" height="8" style="fill:rgb(0,0,0);" />
<rect x="96" y="200" width="8" height="8" style="fill:rgb(0,0,0);" />
<rect x="104" y="200" width="8" height="8" style="fill:rgb(0,0,0);" />
<rect x="136" y="200" width="8" height="8" style="fill:rgb(0,0,0);" />
<rect x="144" y="200" width="8" height="8" style="fill:rgb(0,0,0);" />
<rect x="152" y="200" width="8" height="8" style="fill:rgb(0,0,0);" />
<rect x="168" y="200" width="8" height="8" style="fill:rgb(0,0,0);" />
<rect x="192" y="200" width="8" height="8" style="fill:rgb(0,0,0);" />
<rect x="224" y="200" width="8" height="8" style="fill:rgb(0,0,0);" />
<rect x="232" y="200" width="8" height="8" style="fill:rgb(0,0,0);" />
<rect x="240" y="200" width="8" height="8" style="fill:rgb(0,0,0);" />
<rect x="248" y="200" width="8" height="8" style="fill:rgb(0,0,0);" />
<rect x="256" y="200" width="8" height="8" style="fill:rgb(0,0,0);" />
<rect x="32" y="208" width="8" height="8" style="fill:rgb(0,0,0);" />
<rect x="40" y="208" width="8" height="8" style="fill:rgb(0,0,0);" />
<rect x="48" y="208" width="8" height="8" style="fill:rgb(0,0,0);" />
<rect x="56" y="208" width="8" height="8" style="fill:rgb(0,0,0);" />
<rect x="64" y="208" width="8" height="8" style="fill:rgb(0,0,0);" />
<rect x="72" y="208" width="8" height="8" style="fill:rgb(0,0,0);" />
<rect x="80" y="208" width="8" height="8" style="fill:rgb(0,0,0);" />
<rect x="96" y="208" width="8" height="8" style="fill:rgb(0,0,0);" />
<rect x="104" y="208" width="8" height="8" style="fill:rgb(0,0,0);" />
<rect x="120" y="208" width="8" height="8" style="fill:rgb(0,0,0);" />
<rect x="128" y="208" width="8" height="8" style="fill:rgb(0,0,0);" />
<rect x="136" y="208" width="8" height="8" style="fill:rgb(0,0,0);" />
<rect x="160" y="208" width="8" height="8" style="fill:rgb(0,0,0);" />
<rect x="176" y="208" width="8" height="8" style="fill:rgb(0,0,0);" />
<rect x="184" y="208" width="8" height="8" style="fill:rgb(0,0,0);" />
<rect x="192" y="208" width="8" height="8" style="fill:rgb(0,0,0);" />
<rect x="208" y="208" width="8" height="8" style="fill:rgb(0,0,0);" />
<rect x="224" y="208" width="8" height="8" style="fill:rgb(0,0,0);" />
<rect x="232" y="208" width="8" height="8" style="fill:rgb(0,0,0);" />
<rect x="248" y="208" width="8" height="8" style="fill:rgb(0,0,0);" />
<rect x="32" y="216" width="8" height="8" style="fill:rgb(0,0,0);" />
<rect x="80" y="216" width="8" height="8" style="fill:rgb(0,0,0);" />
<rect x="96" y="216" width="8" height="8" style="fill:rgb(0,0,0);" />
<rect x="112" y="216" width="8" height="8" style="fill:rgb(0,0,0);" />
<rect x="120" y="216" width="8" height="8" style="fill:rgb(0,0,0);" />
<rect x="128" y="216" width="8" height="8" style="fill:rgb(0,0,0);" />
<rect x="160" y="216" width="8" height="8" style="fill:rgb(0,0,0);" />
<rect x="168" y="216" width="8" height="8" style="fill:rgb(0,0,0);" />
<rect x="192" y="216" width="8" height="8" style="fill:rgb(0,0,0);" />
<rect x="224" y="216" width="8" height="8" style="fill:rgb(0,0,0);" />
<rect x="248" y="216" width="8" height="8" style="fill:rgb(0,0,0);" />
<rect x="256" y="216" width="8" height="8" style="fill:rgb(0,0,0);" />
<rect x="32" y="224" width="8" height="8" style="fill:rgb(0,0,0);" />
<rect x="48" y="224" width="8" height="8" style="fill:rgb(0,0,0);" />
<rect x="56" y="224" width="8" height="8" style="fill:rgb(0,0,0);" />
<rect x="64" y="224" width="8" height="8" style="fill:rgb(0,0,0);" />
<rect x="80" y="224" width="8" height="8" style="fill:rgb(0,0,0);" />
<rect x="128" y="224" width="8" height="8" style="fill:rgb(0,0,0);" />
<rect x="144" y="224" width="8" height="8" style="fill:rgb(0,0,0);" />
<rect x="152" y="224" width="8" height="8" style="fill:rgb(0,0,0);" />
<rect x="192" y="224" width="8" height="8" style="fill:rgb(0,0,0);" />
<rect x="200" y="224" width="8" height="8" style="fill:rgb(0,0,0);" />
<rect x="208" y="224" width="8" height="8" style="fill:rgb(0,0,0);" />
<rect x="216" y="224" width="8" height="8" style="fill:rgb(0,0,0);" />
<rect x="224" y="224" width="8" height="8" style="fill:rgb(0,0,0);" />
<rect x="232" y="224" width="8" height="8" style="fill:rgb(0,0,0);" />
<rect x="240" y="224" width="8" height="8" style="fill:rgb(0,0,0);" />
<rect x="32" y="232" width="8" height="8" style="fill:rgb(0,0,0);" />
<rect x="48" y="232" width="8" height="8" style="fill:rgb(0,0,0);" />
<rect x="56" y="232" width="8" height="8" style="fill:rgb(0,0,0);" />
<rect x="64" y="232" width="8" height="8" style="fill:rgb(0,0,0);" />
<rect x="80" y="232" width="8" height="8" style="fill:rgb(0,0,0);" />
<rect x="96" y="232" width="8" height="8" style="fill:rgb(0,0,0);" />
<rect x="104" y="232" width="8" height="8" style="fill:rgb(0,0,0);" />
<rect x="112" y="232" width="8" height="8" style="fill:rgb(0,0,0);" />
<rect x="120" y="232" width="8" height="8" style="fill:rgb(0,0,0);" />
<rect x="136" y="232" width="8" height="8" style="fill:rgb(0,0,0);" />
<rect x="144" y="232" width="8" height="8" style="fill:rgb(0,0,0);" />
<rect x="160" y="232" width="8" height="8" style="fill:rgb(0,0,0);" />
<rect x="168" y="232" width="8" height="8" style="fill:rgb(0,0,0);" />
<rect x="200" y="232" width="8" height="8" style="fill:rgb(0,0,0);" />
<rect x="224" y="232" width="8" height="8" style="fill:rgb(0,0,0);" />
<rect x="240" y="232" width="8" height="8" style="fill:rgb(0,0,0);" />
<rect x="248" y="232" width="8" height="8" style="fill:rgb(0,0,0);" />
<rect x="32" y="240" width="8" height="8" style="fill:rgb(0,0,0);" />
<rect x="48" y="240" width="8" height="8" style="fill:rgb(0,0,0);" />
<rect x="56" y="240" width="8" height="8" style="fill:rgb(0,0,0);" />
<rect x="64" y="240" width="8" height="8" style="fill:rgb(0,0,0);" />
<rect x="80" y="240" width="8" height="8" style="fill:rgb(0,0,0);" />
<rect x="96" y="240" width="8" height="8" style="fill:rgb(0,0,0);" />
<rect x="104" y="240" width="8" height="8" style="fill:rgb(0,0,0);" />
<rect x="136" y="240" width="8" height="8" style="fill:rgb(0,0,0);" />
<rect x="144" y="240" width="8" height="8" style="fill:rgb(0,0,0);" />
<rect x="152" y="240" width="8" height="8" style="fill:rgb(0,0,0);" />
<rect x="160" y="240" width="8" height="8" style="fill:rgb(0,0,0);" />
<rect x="192" y="240" width="8" height="8" style="fill:rgb(0,0,0);" />
<rect x="200" y="240" width="8" height="8" style="fill:rgb(0,0,0);" />
<rect x="216" y="240" width="8" height="8" style="fill:rgb(0,0,0);" />
<rect x="232" y="240" width="8" height="8" style="fill:rgb(0,0,0);" />
<rect x="240" y="240" width="8" height="8" style="fill:rgb(0,0,0);" />
<rect x="256" y="240" width="8" height="8" style="fill:rgb(0,0,0);" />
<rect x="32" y="248" width="8" height="8" style="fill:rgb(0,0,0);" />
<rect x="80" y="248" width="8" height="8" style="fill:rgb(0,0,0);" />
<rect x="104" y="248" width="8" height="8" style="fill:rgb(0,0,0);" />
<rect x="128" y="248" width="8" height="8" style="fill:rgb(0,0,0);" />
<rect x="136" y="248" width="8" height="8" style="fill:rgb(0,0,0);" />
<rect x="144" y="248" width="8" height="8" style="fill:rgb(0,0,0);" />
<rect x="160" y="248" width="8" height="8" style="fill:rgb(0,0,0);" />
<rect x="192" y="248" width="8" height="8" style="fill:rgb(0,0,0);" />
<rect x="200" y="248" width="8" height="8" style="fill:rgb(0,0,0);" />
<rect x="216" y="248" width="8" height="8" style="fill:rgb(0,0,0);" />
<rect x="224" y="248" width="8" height="8" style="fill:rgb(0,0,0);" />
<rect x="232" y="248" width="8" height="8" style="fill:rgb(0,0,0);" />
<rect x="248" y="248" width="8" height="8" style="fill:rgb(0,0,0);" />
<rect x="32" y="256" width="8" height="8" style="fill:rgb(0,0,0);" />
<rect x="40" y="256" width="8" height="8" style="fill:rgb(0,0,0);" />
<rect x="48" y="256" width="8" height="8" style="fill:rgb(0,0,0);" />
<rect x="56" y="256" width="8" height="8" style="fill:rgb(0,0,0);" />
<rect x="64" y="256" width="8" height="8" style="fill:rgb(0,0,0);" />
<rect x="72" y="256" width="8" height="8" style="fill:rgb(0,0,0);" />
<rect x="80" y="256" width="8" height="8" style="fill:rgb(0,0,0);" />
<rect x="96" y="256" width="8" height="8" style="fill:rgb(0,0,0);" />
<rect x="120" y="256" width="8" height="8" style="fill:rgb(0,0,0);" />
<rect x="128" y="256" width="8" height="8" style="fill:rgb(0,0,0);" />
<rect x="152" y="256" width="8" height="8" style="fill:rgb(0,0,0);" />
<rect x="160" y="256" width="8" height="8" style="fill:rgb(0,0,0);" />
<rect x="168" y="256" width="8" height="8" style="fill:rgb(0,0,0);" />
<rect x="192" y="256" width="8" height="8" style="fill:rgb(0,0,0);" />
<rect x="200" y="256" width="8" height="8" style="fill:rgb(0,0,0);" />
<rect x="208" y="256" width="8" height="8" style="fill:rgb(0,0,0);" />
<rect x="248" y="256" width="8" height="8" style="fill:rgb(0,0,0);" />
</svg>
